<?xml version="1.0" encoding="UTF-8"?>
<svg version="1.1" xmlns="http://www.w3.org/2000/svg" width="1408" height="768">
<path d="M0 0 C464.64 0 929.28 0 1408 0 C1408 253.44 1408 506.88 1408 768 C943.36 768 478.72 768 0 768 C0 514.56 0 261.12 0 0 Z " fill="#FEFEFE" transform="translate(0,0)"/>
<path d="M0 0 C2.92426986 0.01085814 5.84849291 0.01046681 8.77277946 0.00986195 C11.63849147 0.01013661 14.50417459 0.01566329 17.36987686 0.02286339 C19.35584417 0.02748024 21.34181737 0.02930365 23.32778931 0.03102112 C45.15550424 0.143713 45.15550424 0.143713 51.31121826 2.19561768 C50.85860469 3.63492885 50.39888847 5.07200766 49.93621826 6.50811768 C49.68098389 7.30862549 49.42574951 8.1091333 49.16278076 8.93389893 C48.31121826 11.19561768 48.31121826 11.19561768 46.31121826 14.19561768 C33.85718942 16.09746444 19.77782594 13.29984488 7.31121826 12.19561768 C7.27383545 13.17917236 7.23645264 14.16272705 7.19793701 15.17608643 C6.82184903 23.56172111 6.07111021 31.82299377 4.87371826 40.13311768 C4.75149902 40.98349609 4.62927979 41.83387451 4.50335693 42.71002197 C3.62585421 48.57885598 2.52303178 54.38711014 1.31121826 60.19561768 C2.1968042 60.13503174 3.08239014 60.0744458 3.99481201 60.01202393 C7.36434342 59.78411597 10.73413218 59.56110686 14.10418701 59.34112549 C15.54702055 59.24600062 16.98973653 59.14907107 18.43231201 59.05010986 C23.38989084 58.71083422 28.34782724 58.43404514 33.31121826 58.19561768 C34.41906174 58.13446777 34.41906174 58.13446777 35.54928589 58.07208252 C37.73159224 57.96022887 39.91221752 57.8853577 42.09637451 57.82061768 C44.01655396 57.74714111 44.01655396 57.74714111 45.9755249 57.67218018 C49.31121826 58.19561768 49.31121826 58.19561768 51.86883545 60.52886963 C53.74871826 63.19561768 53.74871826 63.19561768 55.54168701 66.23858643 C61.22545605 75.73662872 72.09602666 81.69468716 82.56121826 84.57061768 C98.08342968 87.30320299 113.07476353 84.85650781 126.31121826 76.19561768 C138.01490544 67.78874378 144.55117916 55.18338867 147.31121826 41.19561768 C147.53239386 38.78180008 147.71694069 36.36447171 147.87371826 33.94561768 C147.95750732 32.68233643 148.04129639 31.41905518 148.12762451 30.11749268 C148.18821045 29.15327393 148.24879639 28.18905518 148.31121826 27.19561768 C153.62697619 28.83649472 158.67666124 30.74437063 163.76043701 33.00811768 C177.45438143 39.08096089 190.08104593 43.85656731 205.1774292 44.95684814 C208.90772445 45.24106665 212.6281659 45.60691746 216.35028076 45.98077393 C220.52608708 46.39875192 224.70172329 46.81433799 228.88104248 47.19586182 C230.14706299 47.31179688 231.4130835 47.42773193 232.71746826 47.54718018 C233.84475342 47.64853271 234.97203857 47.74988525 236.13348389 47.85430908 C239.22059571 48.18588425 242.25481023 48.65296108 245.31121826 49.19561768 C243.12940008 63.37743586 243.12940008 63.37743586 241.31121826 65.19561768 C239.16562999 65.28337373 237.01717405 65.30256987 234.86981201 65.29327393 C233.56463623 65.29005127 232.25946045 65.28682861 230.91473389 65.2835083 C229.52606136 65.27515169 228.13738949 65.26668673 226.74871826 65.25811768 C225.3561417 65.25310434 223.96356345 65.24854114 222.57098389 65.2444458 C219.15101956 65.23261201 215.73113982 65.21612648 212.31121826 65.19561768 C214.35619047 70.71843377 216.85138762 74.36877366 220.93621826 78.57061768 C221.43895264 79.10300049 221.94168701 79.6353833 222.45965576 80.18389893 C226.27928926 84.51236683 226.27928926 84.51236683 231.56512451 85.51202393 C232.41912842 85.55391846 233.27313232 85.59581299 234.15301514 85.63897705 C235.05084717 85.67829346 235.9486792 85.71760986 236.87371826 85.75811768 C237.77541748 85.80130127 238.6771167 85.84448486 239.60614014 85.88897705 C241.84100311 85.9953991 244.07598134 86.09741755 246.31121826 86.19561768 C246.60254639 87.2810083 246.89387451 88.36639893 247.19403076 89.48468018 C247.60706153 90.93028786 248.02118243 92.37558438 248.43621826 93.82061768 C248.62442139 94.53346924 248.81262451 95.2463208 249.00653076 95.98077393 C250.18181424 99.98408326 251.24560424 102.39070261 254.45574951 105.11749268 C257.13014879 107.54989104 257.7627814 109.12599782 258.00262451 112.73468018 C257.99531199 114.43052136 257.95086777 116.12651652 257.87371826 117.82061768 C257.84036377 119.15141357 257.84036377 119.15141357 257.80633545 120.50909424 C257.36886404 132.15942514 254.85739364 144.64944229 246.31121826 153.19561768 C243.73950817 154.77948205 241.08980478 156.0194393 238.31121826 157.19561768 C237.30059326 157.62874268 236.28996826 158.06186768 235.24871826 158.50811768 C229.21031617 159.92136072 224.0714896 157.86415306 218.56121826 155.44561768 C209.74327111 151.70894853 200.59732197 149.45466982 191.31121826 147.19561768 C191.09207764 146.09604736 190.87293701 144.99647705 190.64715576 143.86358643 C187.42144299 128.48129556 181.71569712 116.20673398 168.86590576 106.31280518 C166.40688175 104.73934608 163.95348924 103.43505399 161.31121826 102.19561768 C160.04471436 101.57880127 160.04471436 101.57880127 158.75262451 100.94952393 C152.12255168 98.23166428 145.76255631 97.81652278 138.68621826 97.75811768 C137.38043823 97.74289062 137.38043823 97.74289062 136.04827881 97.72735596 C121.89586658 97.91689123 110.86431682 104.14163983 100.64715576 113.61749268 C96.06372205 118.67613189 92.47215945 124.71279413 90.31121826 131.19561768 C89.65121826 131.19561768 88.99121826 131.19561768 88.31121826 131.19561768 C87.89871826 130.36159424 87.48621826 129.5275708 87.06121826 128.66827393 C78.8987318 112.76235724 67.58276812 102.77429258 50.82293701 96.22296143 C33.64514917 90.87820833 13.39032851 93.0788321 -2.46905518 101.09552002 C-19.98513222 110.66871116 -30.08588479 129.02802232 -40.68878174 145.19561768 C-40.00912354 145.00620605 -39.32946533 144.81679443 -38.62921143 144.62164307 C-36.80245769 144.11561254 -34.97286417 143.61981412 -33.14190674 143.12921143 C-30.72952704 142.47699565 -28.32363419 141.80051792 -25.92315674 141.10577393 C-16.9378209 138.58382811 -8.05003097 136.84788919 1.31121826 138.19561768 C3.20184326 139.51593018 3.20184326 139.51593018 4.31121826 141.19561768 C4.86555981 145.39277508 4.6141919 147.62333415 2.62371826 151.38311768 C-5.50616065 161.27080824 -17.46332068 163.86800265 -29.68878174 165.19561768 C-35.6986327 165.62479724 -41.67600525 165.49969388 -47.68878174 165.19561768 C-48.35973877 165.16371338 -49.0306958 165.13180908 -49.72198486 165.09893799 C-65.96051235 164.16302286 -81.88399564 159.81310398 -97.68878174 156.19561768 C-119.35267248 151.21451466 -119.35267248 151.21451466 -141.26300049 147.53106689 C-143.8667082 147.17101311 -146.46459149 146.77828501 -149.06378174 146.38702393 C-165.90505933 143.96575857 -182.70340931 143.48919602 -199.68878174 143.19561768 C-199.98397705 142.15018799 -200.27917236 141.1047583 -200.58331299 140.02764893 C-205.08361345 124.42766747 -212.4580173 111.79840236 -226.86456299 103.54718018 C-240.91073019 96.82522464 -254.91873015 95.24727552 -269.68878174 100.19561768 C-285.54600472 106.47411205 -294.24600889 116.90877007 -300.92706299 132.18780518 C-302.26304852 135.70932601 -302.8274698 138.98502248 -303.00518799 142.74249268 C-303.06802979 144.00899658 -303.06802979 144.00899658 -303.13214111 145.30108643 C-303.17145752 146.17378174 -303.21077393 147.04647705 -303.25128174 147.94561768 C-303.31605713 149.27786377 -303.31605713 149.27786377 -303.38214111 150.63702393 C-303.48791789 152.8230773 -303.5900072 155.00923857 -303.68878174 157.19561768 C-304.81671143 157.56171143 -305.94464111 157.92780518 -307.10675049 158.30499268 C-310.96877643 159.58855946 -314.79532852 160.95346929 -318.61679077 162.35174561 C-321.626996 163.44960643 -324.64429457 164.52725194 -327.66217041 165.6038208 C-329.21912529 166.16413605 -330.77321264 166.73248553 -332.32427979 167.30889893 C-342.19105363 170.96627495 -351.30061684 174.26207644 -361.74371338 170.44439697 C-363.43878174 169.63311768 -363.43878174 169.63311768 -365.68878174 168.19561768 C-365.93878174 165.88311768 -365.93878174 165.88311768 -365.68878174 163.19561768 C-364.69878174 162.57686768 -364.69878174 162.57686768 -363.68878174 161.94561768 C-361.52925087 160.42332566 -361.52925087 160.42332566 -361.35284424 158.32843018 C-361.2479908 152.26790166 -361.9494924 145.67419636 -364.68878174 140.19561768 C-365.66351255 131.99395417 -364.35475997 124.3019693 -362.56378174 116.32061768 C-362.37606201 115.42947266 -362.18834229 114.53832764 -361.99493408 113.62017822 C-360.18122125 106.08047644 -356.95040928 101.68405286 -350.82159424 97.00811768 C-311.48777604 73.305661 -258.64975661 65.18829191 -213.20831299 63.83624268 C-193.45291889 63.17140919 -179.18737885 61.33188612 -163.00860596 48.93341064 C-159.62401641 46.39799616 -156.04289097 44.29253038 -152.37628174 42.19561768 C-151.71604004 41.80946289 -151.05579834 41.42330811 -150.37554932 41.02545166 C-122.78314895 24.96216326 -95.23599204 10.68572646 -63.75128174 4.44561768 C-62.75258057 4.24669922 -61.75387939 4.04778076 -60.72491455 3.84283447 C-40.55376465 0.09570741 -20.43808797 -0.09564693 0 0 Z " fill="#0C1D49" transform="translate(758.6887817382813,236.80438232421875)"/>
<path d="M0 0 C9.48419595 7.71969438 15.22909169 17.08509428 18 29 C18.26487662 31.98572508 18.28033691 34.94173029 18.25 37.9375 C18.25773437 38.69740234 18.26546875 39.45730469 18.2734375 40.24023438 C18.24531208 48.47395095 15.98884718 55.39202537 13 63 C14.20011719 62.5153125 15.40023438 62.030625 16.63671875 61.53125 C21.12374812 59.72369618 25.61667197 57.93129669 30.11279297 56.14648438 C31.99287373 55.39992094 33.87214947 54.651326 35.75048828 53.90039062 C55.49731942 46.03175677 74.66475733 40.58258674 96.125 40.6875 C97.29426025 40.69096436 98.46352051 40.69442871 99.66821289 40.69799805 C109.67507078 40.82213219 119.2230496 41.92791487 129 44 C130.04285156 44.20496094 131.08570313 44.40992188 132.16015625 44.62109375 C154.47033494 49.56186234 175.8094951 60.33180986 194 74 C191.22505806 75.38747097 190.05017557 74.58939283 187.1171875 73.671875 C186.12219238 73.36781738 185.12719727 73.06375977 184.10205078 72.75048828 C183.03712402 72.42032715 181.97219727 72.09016602 180.875 71.75 C162.84200581 66.32321842 145.627308 63.80659839 126.79858398 63.75976562 C124.46626284 63.75011897 122.13484779 63.71903169 119.80273438 63.6875 C105.80890884 63.58781993 92.29116595 65.36097737 79 69.9375 C78.14317627 70.22761963 77.28635254 70.51773926 76.40356445 70.81665039 C64.84547783 74.90382485 53.92979058 80.48926148 43 86 C41.8258252 86.59095459 41.8258252 86.59095459 40.62792969 87.19384766 C39.24541365 87.89016289 37.8630775 88.58683546 36.48095703 89.28393555 C20.66333578 97.24910828 5.22218121 103.66142439 -12 108 C-13.25683594 108.31839844 -14.51367188 108.63679688 -15.80859375 108.96484375 C-32.24390265 112.78391553 -48.82673159 113.3801234 -65.625 113.3125 C-66.59277374 113.31034485 -67.56054749 113.3081897 -68.55764771 113.30596924 C-83.24032284 113.25359544 -97.53518478 112.70243519 -112 110 C-113.05912598 109.81195801 -114.11825195 109.62391602 -115.20947266 109.43017578 C-139.27012729 105.09159554 -163.17716328 98.76461084 -186.32836914 90.89355469 C-211.21234666 82.57084997 -237.98496433 77.20300063 -264 74 C-264.75732422 73.90380371 -265.51464844 73.80760742 -266.29492188 73.70849609 C-282.92582285 71.6208619 -299.55897739 70.76527848 -316.3125 70.75 C-317.09670319 70.74899292 -317.88090637 70.74798584 -318.68887329 70.74694824 C-345.34587523 70.76968086 -371.75630081 73.36065531 -398 78 C-399.12229004 78.19352051 -400.24458008 78.38704102 -401.40087891 78.58642578 C-414.7351066 80.89545557 -427.90360069 83.5224516 -440.98828125 86.984375 C-444.30295726 87.85415596 -447.60616195 88.50360397 -451 89 C-426.9779721 70.09640905 -389.01610436 60.80550176 -360 53 C-359.14003418 52.7637793 -358.28006836 52.52755859 -357.39404297 52.28417969 C-295.23258134 35.43310674 -226.00863155 34.60644312 -163.8125 51.9375 C-157.05720196 53.80945006 -150.2478095 55.24962637 -143.375 56.625 C-142.34995361 56.83116943 -141.32490723 57.03733887 -140.26879883 57.24975586 C-137.18315782 57.85702972 -134.09362052 58.43484971 -131 59 C-129.99074463 59.19053955 -128.98148926 59.3810791 -127.94165039 59.57739258 C-119.59283773 61.02622027 -111.39674746 61.40446852 -102.94458008 61.42553711 C-100.69957265 61.43743601 -98.45732302 61.48681878 -96.21289062 61.53710938 C-80.18245139 61.7145139 -63.77255714 57.49877674 -52 46 C-46.81938853 38.34531446 -46.28427027 32.15111583 -47 23 C-48.23503746 18.54344915 -50.69115794 15.95738235 -54.625 13.625 C-55.73875 13.08875 -56.8525 12.5525 -58 12 C-58.66 11.67 -59.32 11.34 -60 11 C-62.37123246 10.76970044 -64.74741943 10.58880058 -67.125 10.4375 C-68.40632813 10.35371094 -69.68765625 10.26992188 -71.0078125 10.18359375 C-72.48894531 10.09271484 -72.48894531 10.09271484 -74 10 C-69.57950652 1.50366169 -60.14730627 -4.22421394 -51.27734375 -7.29296875 C-50.52582031 -7.52628906 -49.77429688 -7.75960938 -49 -8 C-47.783125 -8.4125 -46.56625 -8.825 -45.3125 -9.25 C-29.96951172 -12.63901348 -12.77317852 -9.03468724 0 0 Z " fill="#0C1D49" transform="translate(821,352)"/>
<path d="M0 0 C2.63080382 2.63080382 3.65888726 5.68335828 5.0625 9.0625 C10.7724996 22.34842412 17.55757749 34.51421949 25.5625 46.5625 C29.9723228 53.20210676 34.24166665 59.80357168 37.8125 66.9375 C38.11937744 67.544729 38.42625488 68.15195801 38.74243164 68.77758789 C43.76658439 79.24810338 44.84610921 91.74495483 42.3125 103.07421875 C41.38380892 105.53911967 40.32155096 107.7233094 39 110 C38.57589844 110.76441406 38.15179687 111.52882813 37.71484375 112.31640625 C31.23309468 122.98691796 22.07926407 128.73722028 10.75 133.3125 C-2.85752259 135.80721247 -14.08316212 133.61739837 -25.4609375 125.94140625 C-33.30915806 119.94053607 -39.93805755 110.78548961 -42 101 C-44.33326306 77.2143616 -35.6153901 62.42381676 -23 43 C-14.70002328 30.12421491 -7.05615525 17.13290131 -1.69140625 2.72265625 C-1 1 -1 1 0 0 Z " fill="#F59B18" transform="translate(854,180)"/>
<path d="M0 0 C-0.18175781 0.59425781 -0.36351562 1.18851563 -0.55078125 1.80078125 C-0.80214844 2.62964844 -1.05351563 3.45851562 -1.3125 4.3125 C-1.55613281 5.11300781 -1.79976562 5.91351563 -2.05078125 6.73828125 C-3.12020676 10.41305615 -4.12562109 14.1026422 -5.12817383 17.79614258 C-6.79764414 23.9312473 -8.49538192 30.0586103 -10.1875 36.1875 C-10.55925995 37.53450102 -10.93100483 38.88150621 -11.30273438 40.22851562 C-12.20167548 43.48571781 -13.10076718 46.74287834 -14 50 C-15.53479004 50.07516846 -15.53479004 50.07516846 -17.10058594 50.15185547 C-21.08028272 50.34711707 -25.05991452 50.5436757 -29.03952026 50.74078369 C-30.84674227 50.83027289 -32.65397292 50.91958763 -34.46121216 51.00872803 C-44.33435546 51.49662484 -54.20589486 52.00017949 -64.07421875 52.578125 C-64.87064789 52.6243399 -65.66707703 52.67055481 -66.48764038 52.71817017 C-70.23598321 52.93602133 -73.9839199 53.15865477 -77.73144531 53.39013672 C-87.49689278 53.97305267 -97.21830871 54.09593626 -107 54 C-106.67 50.37 -106.34 46.74 -106 43 C-111.55636487 39.18063402 -116.43666494 39.11352358 -123 40 C-131.19260509 42.90098803 -134.33252844 49.66505688 -138 57 C-144.27 57 -150.54 57 -157 57 C-152.49286171 51.36607714 -152.49286171 51.36607714 -148.9375 48.87109375 C-148.15141357 48.31719971 -147.36532715 47.76330566 -146.55541992 47.19262695 C-145.29048706 46.32383911 -145.29048706 46.32383911 -144 45.4375 C-143.11352783 44.82543701 -142.22705566 44.21337402 -141.3137207 43.58276367 C-98.56223213 14.37787208 -52.14704436 -1.73395345 0 0 Z " fill="#FAFBFC" transform="translate(752,249)"/>
<path d="M0 0 C12.00375 -0.1546875 12.00375 -0.1546875 24.25 -0.3125 C28.00165527 -0.38078003 28.00165527 -0.38078003 31.82910156 -0.45043945 C46.14085713 -0.60316709 57.5064088 -0.22593961 68.37890625 10.171875 C74.37661936 16.93556111 75.37463342 24.01228115 75.27734375 32.80078125 C74.63834118 40.17181093 71.95598143 47.0945715 66.83203125 52.50390625 C56.81805902 60.68162771 45.92766108 61.28728884 33.5625 61.125 C32.25861328 61.11597656 30.95472656 61.10695313 29.61132812 61.09765625 C26.40747269 61.07418478 23.20371228 61.03831682 20 61 C20 68.92 20 76.84 20 85 C13.4 85 6.8 85 0 85 C0 56.95 0 28.9 0 0 Z " fill="#F49816" transform="translate(930,503)"/>
<path d="M0 0 C6.93 0 13.86 0 21 0 C23.33603071 5.08210936 25.66984317 10.1651981 28 15.25 C28.53305252 16.41298111 28.53305252 16.41298111 29.07687378 17.59945679 C33.22687287 26.66049131 37.34457454 35.7344616 41.37890625 44.84765625 C41.73205902 45.64519318 42.08521179 46.4427301 42.44906616 47.26443481 C44.14033587 51.0875571 45.82627971 54.91293941 47.50585938 58.74121094 C51.02404719 66.73098036 54.71682145 74.57456957 58.73022461 82.32885742 C60 85 60 85 60 87 C52.74 87 45.48 87 38 87 C36.865625 84.586875 35.73125 82.17375 34.5625 79.6875 C34.20615479 78.93170654 33.84980957 78.17591309 33.48266602 77.3972168 C32.18311596 74.62234111 30.96979574 71.90938723 30 69 C16.8 69 3.6 69 -10 69 C-12.31 74.94 -14.62 80.88 -17 87 C-23.93 87 -30.86 87 -38 87 C-37.15525472 82.77627361 -36.15118092 79.73291409 -34.4375 75.84765625 C-34.04268433 74.94734932 -34.04268433 74.94734932 -33.63989258 74.02885437 C-32.7649927 72.03779522 -31.8827005 70.05011187 -31 68.0625 C-30.37991628 66.65735541 -29.76013093 65.25207911 -29.140625 63.84667969 C-27.45953977 60.03823024 -25.7707309 56.23325357 -24.07958984 52.42926025 C-22.97489341 49.94350591 -21.87205166 47.45693502 -20.76953125 44.97021484 C-18.88586129 40.72320008 -16.99802825 36.47805828 -15.10693359 32.23434448 C-14.3774157 30.59705226 -13.64855858 28.95946544 -12.92041016 27.32156372 C-8.81703632 18.09880458 -4.59570715 8.99035211 0 0 Z " fill="#0F1F49" transform="translate(309,502)"/>
<path d="M0 0 C6.27 0 12.54 0 19 0 C23.0290559 8.43223842 25.84568471 17.19893896 28.75 26.0625 C29.26129703 27.61146739 29.77301243 29.16029675 30.28515625 30.70898438 C31.52826678 34.47108216 32.7657 38.23500286 34 42 C35.330954 39.43161922 36.45828236 36.89796939 37.40454102 34.1652832 C37.66143204 33.4280452 37.91832306 32.69080719 38.18299866 31.93122864 C38.58934792 30.75290718 38.58934792 30.75290718 39.00390625 29.55078125 C39.28725327 28.73755905 39.57060028 27.92433685 39.86253357 27.08647156 C41.07251012 23.613666 42.27623426 20.13870297 43.48022461 16.66381836 C44.3607831 14.1253204 45.24473239 11.58802174 46.12890625 9.05078125 C46.53829185 7.86335075 46.53829185 7.86335075 46.95594788 6.65193176 C48.88712273 1.11287727 48.88712273 1.11287727 50 0 C52.86267567 -0.07325168 55.700719 -0.09238205 58.5625 -0.0625 C59.36880859 -0.05798828 60.17511719 -0.05347656 61.00585938 -0.04882812 C63.00393756 -0.03700518 65.00197783 -0.01906914 67 0 C70.11976229 7.53133562 72.90426612 15.16936273 75.57421875 22.86987305 C76.25582994 24.82925896 76.94820835 26.78464495 77.640625 28.74023438 C78.07879158 29.99976831 78.51631522 31.25952613 78.953125 32.51953125 C79.34661133 33.64464111 79.74009766 34.76975098 80.14550781 35.92895508 C80.94475731 38.80145777 81.18062264 41.04213198 81 44 C81.66 44 82.32 44 83 44 C83.11206284 43.44638794 83.22412567 42.89277588 83.33958435 42.3223877 C84.47030113 36.96385516 85.93706055 31.87002482 87.78515625 26.71875 C88.04630722 25.97919067 88.30745819 25.23963135 88.57652283 24.47766113 C89.12281749 22.93409091 89.671632 21.39141029 90.22290039 19.84960938 C91.06962674 17.4800559 91.90744755 15.10748755 92.74414062 12.734375 C93.27813133 11.22898406 93.81261822 9.72376902 94.34765625 8.21875 C94.59870621 7.50843628 94.84975616 6.79812256 95.1084137 6.06628418 C96.8840792 1.1159208 96.8840792 1.1159208 98 0 C99.34267413 -0.08631874 100.68974322 -0.10706473 102.03515625 -0.09765625 C102.84404297 -0.09443359 103.65292969 -0.09121094 104.48632812 -0.08789062 C105.33646484 -0.07951172 106.18660156 -0.07113281 107.0625 -0.0625 C107.91650391 -0.05798828 108.77050781 -0.05347656 109.65039062 -0.04882812 C111.76695663 -0.03700373 113.88348685 -0.01906769 116 0 C113.87987217 6.4580149 111.64357078 12.86821898 109.34765625 19.265625 C108.6463727 21.22782467 107.94520445 23.19006556 107.24414062 25.15234375 C106.15498079 28.19788033 105.06497348 31.24310441 103.97290039 34.28759766 C100.08481345 45.13206522 96.25659545 55.94628178 93 67 C86.4 67 79.8 67 73 67 C69.83224684 59.8725554 67.0306267 52.85193323 64.42578125 45.52294922 C63.74306025 43.60550953 63.05149861 41.69140672 62.359375 39.77734375 C61.92625 38.56433594 61.493125 37.35132813 61.046875 36.1015625 C60.65338867 35.00150879 60.25990234 33.90145508 59.85449219 32.76806641 C59 30 59 30 59 27 C58.34 27 57.68 27 57 27 C56.78601563 28.15371094 56.57203125 29.30742188 56.3515625 30.49609375 C54.70851192 37.88982135 51.94875935 44.95382861 49.375 52.0625 C48.85367121 53.5147962 48.3328338 54.96726889 47.8125 56.41992188 C46.54821944 59.94903625 45.2739382 63.47430147 44 67 C37.4 67 30.8 67 24 67 C23.41508789 65.38625488 22.83017578 63.77250977 22.22753906 62.10986328 C20.28112529 56.74101288 18.3331797 51.37271993 16.38422012 46.00479317 C15.20417653 42.75448434 14.0247233 39.50396397 12.84667969 36.25292969 C11.48814998 32.50389452 10.1269443 28.75583565 8.765625 25.0078125 C8.34879456 23.85636749 7.93196411 22.70492249 7.50250244 21.51858521 C5.35139252 15.60262686 3.12942707 9.7364032 0.7074585 3.92550659 C0 2 0 2 0 0 Z " fill="#112049" transform="translate(580,522)"/>
<path d="M0 0 C0.886875 0.5775 1.77375 1.155 2.6875 1.75 C6.03188853 5.00399965 7.99036449 8.81854786 10 13 C10.36867188 13.763125 10.73734375 14.52625 11.1171875 15.3125 C14.15172411 24.55038137 12.56785719 34.96121023 8.40625 43.515625 C3.5777012 52.04606122 -3.89230962 56.64135006 -13 60 C-23.21040976 62.43104994 -34.12938581 61.57055541 -43.48046875 56.7109375 C-53.47726733 50.44828646 -57.35346118 42.93961645 -61 32 C-61.99958237 22.29913498 -59.85588807 13.83119577 -54.375 5.75 C-40.49861584 -11.18683981 -17.18302725 -12.21304851 0 0 Z " fill="#F49918" transform="translate(1125,529)"/>
<path d="M0 0 C7.32806283 5.21419855 10.93244186 11.33638249 13 20 C14.13412112 32.1983958 12.3472287 41.6552934 4.62890625 51.25 C-2.79428649 59.2250368 -12.44618699 61.85225522 -23.0625 62.3125 C-34.50590815 62.1414708 -44.00780047 58.18604019 -52 50 C-59.14309954 41.15536024 -59.93008816 30.95578424 -59.24707031 20.00292969 C-58.6754109 15.36864728 -56.63997955 11.76197087 -54 8 C-53.278125 6.9275 -52.55625 5.855 -51.8125 4.75 C-37.32404235 -9.41649193 -16.7506377 -10.89266421 0 0 Z " fill="#10204A" transform="translate(565,528)"/>
<path d="M0 0 C6.6 0 13.2 0 20 0 C20.495 14.355 20.495 14.355 21 29 C24.3 27.35 27.6 25.7 31 24 C40.96957247 22.00608551 49.28777062 22.80640752 58.11328125 28.3203125 C63.59218614 32.61427222 66.56415125 38.24600135 68 45 C68.08406811 46.55711074 68.11780938 48.1173852 68.11352539 49.67675781 C68.11341209 51.05773651 68.11341209 51.05773651 68.11329651 52.46661377 C68.10813522 53.45216248 68.10297394 54.43771118 68.09765625 55.453125 C68.0962413 56.46848328 68.09482635 57.48384155 68.09336853 58.52996826 C68.08777516 61.77000892 68.07522385 65.00998025 68.0625 68.25 C68.05748414 70.44791567 68.05292139 72.64583242 68.04882812 74.84375 C68.0386592 80.22921481 68.01908237 85.61452987 68 91 C61.4 91 54.8 91 48 91 C47.97421875 88.03773438 47.9484375 85.07546875 47.921875 82.0234375 C47.88342588 79.14394767 47.83827486 76.26463518 47.79248047 73.38525391 C47.76431297 71.38924675 47.74307748 69.39312894 47.72900391 67.39697266 C47.70751597 64.52188636 47.66083574 61.64812471 47.609375 58.7734375 C47.60814636 57.88570648 47.60691772 56.99797546 47.60565186 56.08334351 C47.47351754 50.45170879 46.67706885 47.32862564 43 43 C39.02272875 40.56944535 34.55674114 40.27628229 30 41 C25.52646806 43.2789691 23.09927799 45.46515374 21 50 C20.53976351 53.15040526 20.51161139 56.27686979 20.48828125 59.45703125 C20.46135445 60.81147591 20.46135445 60.81147591 20.43388367 62.19328308 C20.37986979 65.06630844 20.34591363 67.93916851 20.3125 70.8125 C20.27931904 72.76499691 20.24482866 74.71747204 20.20898438 76.66992188 C20.12169208 81.4466372 20.06154794 86.22260647 20 91 C13.4 91 6.8 91 0 91 C0 60.97 0 30.94 0 0 Z " fill="#0F1F49" transform="translate(845,498)"/>
<path d="M0 0 C7.21566315 7.49378293 8.29958361 14.79520912 8.1953125 24.8671875 C8.1924826 25.90191193 8.18965271 26.93663635 8.18673706 28.00271606 C8.17558048 31.29359714 8.15048397 34.58420178 8.125 37.875 C8.11496437 40.11197522 8.10583953 42.34895473 8.09765625 44.5859375 C8.0756559 50.05739748 8.041157 55.52865194 8 61 C2.06 61 -3.88 61 -10 61 C-10.33 59.02 -10.66 57.04 -11 55 C-12.5159375 56.175625 -12.5159375 56.175625 -14.0625 57.375 C-21.09228353 62.31825416 -28.61831783 62.84458277 -37 62 C-44.17375543 60.29827108 -49.56383474 56.91057587 -54 51 C-56.51371713 45.86327368 -56.95737927 40.41829377 -55.41796875 34.921875 C-52.95469984 29.0280261 -48.70921066 25.68367088 -43 23 C-36.28222493 20.81006451 -30.02524127 20.76069695 -23 20.875 C-21.93910156 20.88402344 -20.87820313 20.89304687 -19.78515625 20.90234375 C-17.18986362 20.92572476 -14.59505535 20.95849444 -12 21 C-13.28211919 15.25091872 -13.28211919 15.25091872 -17 11 C-25.34613636 8.21795455 -33.85734037 9.7491306 -41.7578125 13.125 C-44 14 -44 14 -47 14 C-47.86883706 12.42466914 -48.71959068 10.83935491 -49.5625 9.25 C-50.03816406 8.36828125 -50.51382813 7.4865625 -51.00390625 6.578125 C-52 4 -52 4 -51.9296875 1.8359375 C-49.91031863 -2.15189178 -44.95755032 -3.44229939 -41 -5 C-27.80146449 -9.07878673 -11.30782287 -8.58356727 0 0 Z " fill="#10204A" transform="translate(754,528)"/>
<path d="M0 0 C6.6 0 13.2 0 20 0 C20.01417969 3.03445313 20.02835937 6.06890625 20.04296875 9.1953125 C20.07360988 12.1443178 20.11269333 15.09309926 20.15258789 18.04199219 C20.17574007 20.08650762 20.19015706 22.13114186 20.19555664 24.17578125 C20.20486644 27.12054231 20.24590158 30.06344209 20.29296875 33.0078125 C20.2890361 33.9174173 20.28510345 34.82702209 20.28105164 35.76419067 C20.38076026 40.13179156 20.61488309 43.09458612 23.41918945 46.56201172 C26.9270896 49.87578439 28.91996398 50.36177206 33.76953125 50.2734375 C37.61846363 49.8015894 41.08219029 48.58138819 44 46 C46.83845921 40.54088414 47.46270466 36.10254963 47.51171875 30.00390625 C47.52966995 29.17036118 47.54762115 28.3368161 47.56611633 27.47801208 C47.61990295 24.83955812 47.65401231 22.20128172 47.6875 19.5625 C47.72070112 17.76364733 47.75519334 15.964818 47.79101562 14.16601562 C47.8780206 9.77732269 47.9383569 5.38941406 48 1 C54.27 1 60.54 1 67 1 C67 22.78 67 44.56 67 67 C61.06 67 55.12 67 49 67 C48.505 63.535 48.505 63.535 48 60 C47.29875 60.598125 46.5975 61.19625 45.875 61.8125 C39.87348746 66.37886823 35.12475182 67.58434033 27.75 67.5625 C26.90679199 67.56008301 26.06358398 67.55766602 25.19482422 67.55517578 C17.17692391 67.31849071 12.29996836 64.91097367 6.40234375 59.546875 C-0.01487354 52.73676686 -0.43112782 44.74229908 -0.29296875 35.9375 C-0.28872391 34.90560547 -0.28447906 33.87371094 -0.28010559 32.81054688 C-0.26341801 29.54009033 -0.22578395 26.27026783 -0.1875 23 C-0.17244036 20.77214437 -0.1587542 18.544279 -0.14648438 16.31640625 C-0.11354693 10.87736279 -0.06183324 5.43878861 0 0 Z " fill="#0E1F49" transform="translate(374,522)"/>
<path d="M0 0 C-1.49170266 4.9723422 -3.60457417 9.41845739 -6 14 C-6.99580078 13.69255859 -6.99580078 13.69255859 -8.01171875 13.37890625 C-8.89472656 13.10949219 -9.77773438 12.84007812 -10.6875 12.5625 C-11.55761719 12.29566406 -12.42773438 12.02882813 -13.32421875 11.75390625 C-21.1098782 9.56028249 -28.37072525 8.87004113 -36 12 C-36.33 13.98 -36.66 15.96 -37 18 C-35.11667969 18.38091797 -35.11667969 18.38091797 -33.1953125 18.76953125 C-4.20998099 24.69802011 -4.20998099 24.69802011 2 34 C2.93690766 39.82811679 3.17712508 46.64849259 0.5 52.0625 C-6.28960227 60.04028267 -15.35728313 62.39944566 -25.54296875 63.3203125 C-36.4651276 63.66558623 -48.71688918 62.20652429 -58 56 C-56.45941767 50.98491285 -54.97068161 46.3852919 -52 42 C-48.41527746 42.60703858 -45.39443709 43.63012643 -42.0625 45.0625 C-35.49996051 47.50230437 -28.93056749 47.94974443 -22 47 C-19.15696313 45.59134991 -19.15696313 45.59134991 -17 44 C-17.25232795 42.04035725 -17.25232795 42.04035725 -18 40 C-22.74347436 37.62826282 -27.13743397 36.77446228 -32.375 36.0625 C-40.86906217 34.86032415 -48.44262726 32.94671593 -54 26 C-57.2162733 20.867649 -56.58788263 14.82802161 -56 9 C-52.34225903 1.27810241 -45.67147178 -2.07688106 -38 -5 C-26.09060523 -8.78822744 -10.736697 -5.77259161 0 0 Z " fill="#0F1F49" transform="translate(831,527)"/>
<path d="M0 0 C6.6 0 13.2 0 20 0 C20 5.61 20 11.22 20 17 C25.61 17 31.22 17 37 17 C37 21.95 37 26.9 37 32 C31.39 32 25.78 32 20 32 C20.07400065 36.36093469 20.15681516 40.71981611 20.26245117 45.07983398 C20.29569423 46.56279854 20.32372823 48.04588944 20.34643555 49.52905273 C20.37999468 51.66184293 20.43230638 53.79347612 20.48828125 55.92578125 C20.51446533 57.20880127 20.54064941 58.49182129 20.56762695 59.8137207 C20.74927533 62.94380487 20.74927533 62.94380487 22.32104492 64.92651367 C25.80178815 67.15202305 30.04994548 66.16171141 33.9375 65.5 C34.618125 65.335 35.29875 65.17 36 65 C40.99599898 75.23733719 40.99599898 75.23733719 40 79 C35.46564722 82.78784348 30.8032594 82.48295501 25.1875 82.4375 C24.32318359 82.45748047 23.45886719 82.47746094 22.56835938 82.49804688 C15.9472957 82.49304985 10.4872607 81.14584276 5.47387695 76.62329102 C0.44188807 71.0339126 -0.30034356 65.22862392 -0.1953125 57.9765625 C-0.1924826 57.23038666 -0.18965271 56.48421082 -0.18673706 55.71542358 C-0.17561687 53.35178012 -0.15052821 50.98852732 -0.125 48.625 C-0.11495962 47.01432842 -0.10583562 45.40365085 -0.09765625 43.79296875 C-0.0757044 39.86183056 -0.04123185 35.93098133 0 32 C-3.63 32 -7.26 32 -11 32 C-11 26.72 -11 21.44 -11 16 C-7.37 16 -3.74 16 0 16 C0 10.72 0 5.44 0 0 Z " fill="#12214B" transform="translate(461,507)"/>
<path d="M0 0 C8.91878114 6.83725037 15.30551908 14.96197789 18.6875 25.8125 C18.87640424 28.51952204 18.80560605 31.09310822 18.6875 33.8125 C7.42786339 33.52141656 7.42786339 33.52141656 2.6875 31.8125 C-0.08564703 28.83353347 -1.04322405 25.62620414 -2.3125 21.8125 C-6.42826282 15.58005915 -12.24909405 12.35827559 -19.30859375 10.203125 C-28.89778825 8.33388631 -36.22497424 10.44446389 -44.3125 15.8125 C-50.53356744 21.17633374 -53.23115297 27.63554686 -54 35.75 C-54.11577913 37.43674306 -54.22395865 39.12410805 -54.3125 40.8125 C-56.76964547 41.64948386 -59.22808857 42.48222424 -61.6875 43.3125 C-62.38617187 43.55097656 -63.08484375 43.78945313 -63.8046875 44.03515625 C-69.0859375 45.8125 -69.0859375 45.8125 -71.3125 45.8125 C-72.11626162 32.05924558 -70.64408724 19.72821969 -61.25 8.8359375 C-44.80332308 -8.34022912 -20.83849585 -13.61786203 0 0 Z " fill="#0D1E48" transform="translate(923.3125,348.1875)"/>
<path d="M0 0 C2.01097701 1.42492085 3.83684205 2.93898186 5.67578125 4.578125 C6.26746094 5.05507813 6.85914063 5.53203125 7.46875 6.0234375 C15.20224097 12.81798365 19.25185362 22.61063162 20.67578125 32.578125 C15.06578125 32.578125 9.45578125 32.578125 3.67578125 32.578125 C2.83015625 30.721875 1.98453125 28.865625 1.11328125 26.953125 C-2.81225676 19.19334057 -6.60799247 15.4824639 -14.63671875 12.203125 C-23.15949027 9.43205994 -29.96842472 9.7636862 -38.140625 13.4609375 C-44.745161 16.84000243 -48.37442679 21.84974756 -51.32421875 28.578125 C-52.32752387 32.89091052 -52.92356558 37.17094008 -53.32421875 41.578125 C-55.42741938 42.08217308 -57.53181666 42.58123008 -59.63671875 43.078125 C-60.80847656 43.3565625 -61.98023438 43.635 -63.1875 43.921875 C-66.32421875 44.578125 -66.32421875 44.578125 -69.32421875 44.578125 C-70.07348026 30.52530913 -68.65218609 19.81663135 -59.265625 8.60546875 C-43.41661819 -7.94510376 -19.88723603 -12.1663091 0 0 Z " fill="#0F1F49" transform="translate(531.32421875,347.421875)"/>
<path d="M0 0 C0 5.94 0 11.88 0 18 C-2.02125 18.226875 -4.0425 18.45375 -6.125 18.6875 C-12.03138226 19.60012925 -15.09957566 20.46707441 -19 25 C-21.38172386 29.50926549 -21.34263898 33.82084314 -21.4140625 38.80078125 C-21.43342865 39.63715622 -21.4527948 40.47353119 -21.4727478 41.33525085 C-21.53230192 43.9942317 -21.57883174 46.6532564 -21.625 49.3125 C-21.66320206 51.12046109 -21.70225509 52.92840442 -21.7421875 54.73632812 C-21.83957814 59.15745716 -21.91933725 63.57840775 -22 68 C-28.6 68 -35.2 68 -42 68 C-42 45.89 -42 23.78 -42 1 C-35.73 1 -29.46 1 -23 1 C-22.67 3.31 -22.34 5.62 -22 8 C-21.25556641 7.38511719 -21.25556641 7.38511719 -20.49609375 6.7578125 C-13.64034886 1.320049 -8.94292058 0 0 0 Z " fill="#F59713" transform="translate(1059,521)"/>
<path d="M0 0 C3.50438449 2.64965656 5.94169939 4.77859459 7.5625 8.9375 C8.37884708 14.97846838 8.79324645 21.49560186 5.9375 27.0625 C2.66287235 31.02652294 -0.56816713 33.31438904 -5.4375 34.9375 C-11.56205118 35.43951239 -14.56267646 35.03678344 -19.4375 30.9375 C-24.19568635 25.78279812 -25.93504693 21.22816905 -25.75 14.27734375 C-25.02378651 8.83982027 -22.38754301 5.07755161 -18.9375 0.9375 C-13.6502279 -3.05492995 -5.9293882 -1.83271999 0 0 Z " fill="#FEFDF9" transform="translate(1109.4375,539.0625)"/>
<path d="M0 0 C4.35365164 1.94359448 7.10479497 4.5182969 9.3046875 8.81640625 C11.23988238 14.89378793 10.9670604 21.6733096 8.375 27.5 C6.11792478 31.22301067 4.10052326 33.27346389 0 35 C-5.04373304 35.67463945 -10.31667273 36.18977719 -15.0703125 34.08203125 C-19.48226134 30.65667399 -21.74725198 26.00376809 -22.43359375 20.5625 C-22.44408919 10.9906605 -22.44408919 10.9906605 -20.375 6.375 C-13.99381612 -0.00618388 -8.88724868 -1.18415264 0 0 Z " fill="#FAFBFC" transform="translate(548,538)"/>
<path d="M0 0 C3.795 -0.103125 7.59 -0.20625 11.5 -0.3125 C12.68013672 -0.35802002 13.86027344 -0.40354004 15.07617188 -0.45043945 C21.93670463 -0.54019153 26.82130142 0.26881218 32 5 C34.30055997 8.45083995 34.27010256 9.87175728 34.25 13.9375 C34.25773438 15.49791016 34.25773438 15.49791016 34.265625 17.08984375 C33.93698444 20.69039105 33.0984578 22.92522815 30.49414062 25.47338867 C24.32761384 29.69116848 18.78377517 29.59344845 11.5 29.3125 C7.705 29.209375 3.91 29.10625 0 29 C0 19.43 0 9.86 0 0 Z " fill="#FEFAF2" transform="translate(950,519)"/>
<path d="M0 0 C-3.70563031 4.53939713 -7.50770922 8.43864199 -11.97265625 12.2265625 C-14.63951389 14.55942063 -17.0965718 17.06760703 -19.5546875 19.6171875 C-22.49405016 22.42944259 -24.94612088 22.1167664 -28.8828125 22.09765625 C-30.04941406 22.09443359 -31.21601563 22.09121094 -32.41796875 22.08789062 C-33.64128906 22.07951172 -34.86460937 22.07113281 -36.125 22.0625 C-37.35605469 22.05798828 -38.58710938 22.05347656 -39.85546875 22.04882812 C-42.90369392 22.0370133 -45.95182314 22.02054028 -49 22 C-51.0670948 18.08282824 -52.3950743 15.47750869 -52 11 C-45.08563924 7.47632481 -38.29054711 5.77665332 -30.6875 4.375 C-29.63626953 4.17132813 -28.58503906 3.96765625 -27.50195312 3.7578125 C-24.33806476 3.15109267 -21.17065104 2.57025746 -18 2 C-16.92572754 1.80438477 -15.85145508 1.60876953 -14.74462891 1.40722656 C-13.70097168 1.22385742 -12.65731445 1.04048828 -11.58203125 0.8515625 C-10.18754761 0.605271 -10.18754761 0.605271 -8.76489258 0.35400391 C-5.81543696 -0.02363059 -2.97032539 -0.05963081 0 0 Z " fill="#F6F7F9" transform="translate(459,334)"/>
<path d="M0 0 C0.33 0.66 0.66 1.32 1 2 C0.109375 4.28515625 0.109375 4.28515625 -1.25 7.0625 C-3.55911054 11.96856034 -5.49352582 16.79324861 -7 22 C-7.20625 22.68191406 -7.4125 23.36382812 -7.625 24.06640625 C-10.95346667 36.61749931 -9.19543416 48.35086248 -4 60 C-2.22890032 62.92674223 -0.26290217 65.44650657 2 68 C3.00936464 69.32625819 4.01173393 70.65794637 5 72 C-2.26073865 70.88983434 -7.8941487 66.80603508 -12.375 61.0625 C-16.88903196 54.84580687 -18.54524711 49.17578159 -18.4375 41.625 C-18.42920166 40.87186523 -18.42090332 40.11873047 -18.41235352 39.34277344 C-18.23137659 33.38921235 -17.06230366 29.13386203 -14 24 C-13.21882812 22.49566406 -13.21882812 22.49566406 -12.421875 20.9609375 C-8.65782735 13.72108009 -4.49009248 6.81020106 0 0 Z " fill="#FEFAEC" transform="translate(841,228)"/>
<path d="M0 0 C0.66 0 1.32 0 2 0 C3.63076793 4.01851766 5.25357494 8.04020451 6.875 12.0625 C7.33519531 13.19623047 7.79539062 14.32996094 8.26953125 15.49804688 C8.71425781 16.60341797 9.15898437 17.70878906 9.6171875 18.84765625 C10.02565918 19.85836182 10.43413086 20.86906738 10.85498047 21.91040039 C12.07918006 25.21365109 13.03221202 28.61274208 14 32 C5.42 32 -3.16 32 -12 32 C-8.625 20.75 -8.625 20.75 -6.73828125 16.2109375 C-6.34189453 15.25058594 -5.94550781 14.29023437 -5.53710938 13.30078125 C-5.13298828 12.33527344 -4.72886719 11.36976563 -4.3125 10.375 C-3.68891602 8.86873047 -3.68891602 8.86873047 -3.05273438 7.33203125 C-2.03945904 4.88619424 -1.02183204 2.4422715 0 0 Z " fill="#F0F2F5" transform="translate(318,523)"/>
<path d="M0 0 C0.88365234 0.01804687 1.76730469 0.03609375 2.67773438 0.0546875 C4.84812543 0.10161487 7.01795519 0.17335269 9.1875 0.25 C9.40625 7.890625 9.40625 7.890625 7.4375 11.125 C3.52897712 14.81638272 0.54565361 15.55802308 -4.8125 15.625 C-5.84375 15.65335938 -6.875 15.68171875 -7.9375 15.7109375 C-11.51299944 15.13769167 -12.65149664 14.10760915 -14.8125 11.25 C-15.375 7.75 -15.375 7.75 -14.8125 4.25 C-10.49993793 -0.69366871 -6.08082402 -0.23579631 0 0 Z " fill="#F9FAFC" transform="translate(732.8125,560.75)"/>
<path d="M0 0 C6.27 0 12.54 0 19 0 C19.33 2.97 19.66 5.94 20 9 C19.01 9 18.02 9 17 9 C17 6.69 17 4.38 17 2 C12.05 2 7.1 2 2 2 C2 22.79 2 43.58 2 65 C7.28 65 12.56 65 18 65 C17.96519531 61.18888672 17.96519531 61.18888672 17.9296875 57.30078125 C17.91407647 54.83179219 17.90194 52.36280869 17.89013672 49.89379883 C17.88009792 48.18185961 17.86646405 46.46993745 17.84912109 44.75805664 C17.82477927 42.29308858 17.81349562 39.82834785 17.8046875 37.36328125 C17.79436493 36.60163162 17.78404236 35.83998199 17.77340698 35.05525208 C17.77253964 30.91917259 18.14221003 27.7187941 20 24 C20.66 24 21.32 24 22 24 C21.84152588 24.64348389 21.68305176 25.28696777 21.51977539 25.94995117 C20.84503082 29.90936116 20.76680218 33.79085702 20.68359375 37.80078125 C20.66281265 38.63715622 20.64203156 39.47353119 20.62062073 40.33525085 C20.55548966 42.99425421 20.4964105 45.65335228 20.4375 48.3125 C20.39428008 50.12045231 20.3506647 51.92839522 20.30664062 53.73632812 C20.19910515 58.15745663 20.09976135 62.57866194 20 67 C13.4 67 6.8 67 0 67 C0 44.89 0 22.78 0 0 Z " fill="#E6A141" transform="translate(1017,522)"/>
<path d="M0 0 C0.33 0 0.66 0 1 0 C1 13.53 1 27.06 1 41 C-5.6 41 -12.2 41 -19 41 C-18.67 27.8 -18.34 14.6 -18 1 C-17.67 1 -17.34 1 -17 1 C-17 13.54 -17 26.08 -17 39 C-11.72 39 -6.44 39 -1 39 C-1.01160156 36.43605469 -1.02320313 33.87210938 -1.03515625 31.23046875 C-1.04295415 28.74829227 -1.04902675 26.26611716 -1.05493164 23.78393555 C-1.05996158 22.0583434 -1.06678626 20.33275552 -1.07543945 18.60717773 C-1.08756361 16.1274307 -1.09324169 13.64774 -1.09765625 11.16796875 C-1.10539818 10.01001045 -1.10539818 10.01001045 -1.11329651 8.82865906 C-1.11363318 5.6169772 -1.02326578 3.06979734 0 0 Z " fill="#202C4D" transform="translate(864,548)"/>
<path d="M0 0 C0 0.66 0 1.32 0 2 C-6.37408013 2.9546087 -12.56206056 3.11976442 -19 3.0625 C-22.3 3.041875 -25.6 3.02125 -29 3 C-29 10.26 -29 17.52 -29 25 C-29.66 25 -30.32 25 -31 25 C-31 17.08 -31 9.16 -31 1 C-26.58336586 0.83243122 -22.16669663 0.66590637 -17.75 0.5 C-16.49574219 0.45230469 -15.24148438 0.40460937 -13.94921875 0.35546875 C-12.74394531 0.31035156 -11.53867187 0.26523437 -10.296875 0.21875 C-9.18666992 0.17685547 -8.07646484 0.13496094 -6.93261719 0.09179688 C-4.6226736 0.01949095 -2.31107497 0 0 0 Z " fill="#FEF2D5" transform="translate(982,563)"/>
<path d="M0 0 C0 5.94 0 11.88 0 18 C-3.3 18 -6.6 18 -10 18 C-9.67 17.34 -9.34 16.68 -9 16 C-6.69 16 -4.38 16 -2 16 C-2 11.38 -2 6.76 -2 2 C-3.03125 2.33 -4.0625 2.66 -5.125 3 C-8.48426709 3.9715192 -11.49106202 4.17116771 -15 4 C-15 4.66 -15 5.32 -15 6 C-16.32 5.67 -17.64 5.34 -19 5 C-12.68366721 0.78911147 -7.60682903 0 0 0 Z " fill="#E5A242" transform="translate(1059,521)"/>
<path d="M0 0 C0 0.66 0 1.32 0 2 C1.32 2 2.64 2 4 2 C4.495 3.98 4.495 3.98 5 6 C3.67935547 5.36771484 3.67935547 5.36771484 2.33203125 4.72265625 C1.17058594 4.17480469 0.00914063 3.62695312 -1.1875 3.0625 C-2.33605469 2.51722656 -3.48460937 1.97195313 -4.66796875 1.41015625 C-15.57710729 -3.20672419 -26.93107104 -0.99932269 -38 2 C-38 1.34 -38 0.68 -38 0 C-36.68 0 -35.36 0 -34 0 C-34 -0.66 -34 -1.32 -34 -2 C-21.54027725 -5.02709099 -12.11068683 -4.31286781 0 0 Z " fill="#FEF6D9" transform="translate(1120,523)"/>
<path d="M0 0 C3.77746904 0.65500057 6.48506931 2.38093236 9.6875 4.4375 C10.66074219 5.05496094 11.63398437 5.67242187 12.63671875 6.30859375 C15 8 15 8 16 10 C9.63583076 8.43247063 3.28643343 6.85735533 -3 5 C-2.34 4.34 -1.68 3.68 -1 3 C-0.01 3 0.98 3 2 3 C2 2.34 2 1.68 2 1 C1.34 0.67 0.68 0.34 0 0 Z " fill="#1D2B51" transform="translate(999,417)"/>
<path d="M0 0 C-8.03491838 5.35661226 -16.52890655 5.83285827 -26 5 C-29.4466359 4.24941846 -32.71186082 3.27282807 -36 2 C-32.7324255 0.93074793 -30.6274972 1.12076156 -27.3125 1.9375 C-19.76652892 3.55528528 -13.94529406 3.71319527 -6.796875 0.66796875 C-4.47927995 -0.19357202 -2.44626567 -0.22933741 0 0 Z " fill="#EAAC4F" transform="translate(873,309)"/>
<path d="M0 0 C2.33090327 4.66180654 2.33325825 7.66838021 2.3125 12.75 C2.32861328 13.5234375 2.34472656 14.296875 2.36132812 15.09375 C2.36603414 20.70331715 1.22694557 24.85275904 -1 30 C-1.33 30 -1.66 30 -2 30 C-2 28.02 -2 26.04 -2 24 C-1.34 24 -0.68 24 0 24 C0 16.08 0 8.16 0 0 Z " fill="#E69F37" transform="translate(895,258)"/>
<path d="M0 0 C9.24 0 18.48 0 28 0 C24.40688383 3.59311617 19.54030574 3.0855503 14.6875 3.1875 C9.52684802 3.15215307 4.98312498 2.30704918 0 1 C0 0.67 0 0.34 0 0 Z " fill="#EBA53F" transform="translate(1086,587)"/>
<path d="M0 0 C4.77877012 4.00383442 6.82474223 7.86662351 8 14 C8.46961905 19.84088698 8.80494536 24.76489297 6 30 C5.96132813 28.081875 5.96132813 28.081875 5.921875 26.125 C5.86555525 24.41663435 5.80820882 22.70830233 5.75 21 C5.73582031 20.16082031 5.72164062 19.32164062 5.70703125 18.45703125 C5.50119155 13.14636699 4.59153534 9.3199833 1.94628906 4.69140625 C1 3 1 3 0 0 Z " fill="#E4A344" transform="translate(997,513)"/>
<path d="M0 0 C2.24956302 2.24956302 3.00510965 4.06323263 4.1875 7 C4.55230469 7.886875 4.91710937 8.77375 5.29296875 9.6875 C6 12 6 12 5 14 C1.75267068 12.37633534 1.29844864 9.24612161 0 6 C-1.98 10.455 -1.98 10.455 -4 15 C-4.66 15 -5.32 15 -6 15 C-4.36041242 9.76727367 -2.61047965 4.84803364 0 0 Z " fill="#E8A949" transform="translate(854,180)"/>
<path d="M0 0 C0.33 0.66 0.66 1.32 1 2 C0.109375 4.28515625 0.109375 4.28515625 -1.25 7.0625 C-3.57414254 11.96974247 -5.38629117 16.81914534 -7 22 C-7.33 20.68 -7.66 19.36 -8 18 C-8.66 18 -9.32 18 -10 18 C-8.47146065 13.72813475 -6.28490519 10.00673137 -3.875 6.1875 C-3.50246094 5.59001953 -3.12992188 4.99253906 -2.74609375 4.37695312 C-1.8342952 2.91573749 -0.91764024 1.45755415 0 0 Z " fill="#FEE7B0" transform="translate(841,228)"/>
<path d="M0 0 C5.58470276 2.39344404 7.52089069 6.76342524 10 12 C10.37511719 12.74894531 10.75023437 13.49789062 11.13671875 14.26953125 C12.30249176 17.95674996 12.21378981 21.49112321 12.125 25.3125 C12.11597656 26.05306641 12.10695313 26.79363281 12.09765625 27.55664062 C12.07424213 29.37123467 12.03837615 31.18566071 12 33 C11.67 33 11.34 33 11 33 C10.95101563 31.95199219 10.90203125 30.90398438 10.8515625 29.82421875 C10.77651857 28.44528646 10.70097143 27.0663815 10.625 25.6875 C10.5940625 24.99720703 10.563125 24.30691406 10.53125 23.59570312 C10.31875081 19.93009211 10.08066139 18.12099208 8 15 C7.71125 14.071875 7.4225 13.14375 7.125 12.1875 C5.87678563 8.65089262 4.26884001 5.97785251 2 3 C1.34 3 0.68 3 0 3 C0 2.01 0 1.02 0 0 Z " fill="#E4A448" transform="translate(1125,530)"/>
<path d="M0 0 C0.66 0.99 1.32 1.98 2 3 C1.50886719 3.50015625 1.01773437 4.0003125 0.51171875 4.515625 C-1.54344718 7.893107 -1.32839999 10.92763623 -1.1875 14.75 C-1.17396484 15.44738281 -1.16042969 16.14476562 -1.14648438 16.86328125 C-1.1112945 18.57585541 -1.05749155 20.28802941 -1 22 C-3.81097334 19.18902666 -4.18370413 16.64248232 -4.3125 12.8125 C-4.28722784 7.67382831 -2.55811442 4.39675916 0 0 Z " fill="#FDEFCB" transform="translate(1088,543)"/>
<path d="M0 0 C0 0.99 0 1.98 0 3 C0.99 3.33 1.98 3.66 3 4 C0.39816412 4.69761537 -2.20583602 5.38337774 -4.8125 6.0625 C-5.55048828 6.26166016 -6.28847656 6.46082031 -7.04882812 6.66601562 C-12.66015625 8.11328125 -12.66015625 8.11328125 -16 7 C-13.71070947 5.82845707 -11.41881638 4.66261926 -9.125 3.5 C-8.47402344 3.16613281 -7.82304687 2.83226562 -7.15234375 2.48828125 C-2.2265625 0 -2.2265625 0 0 0 Z " fill="#2D3854" transform="translate(386,433)"/>
<path d="M0 0 C2.66711077 1.33355538 2.97736072 2.19222725 4 5 C4.19134471 7.75198719 4.2794906 10.3774594 4.25 13.125 C4.25773438 13.85332031 4.26546875 14.58164062 4.2734375 15.33203125 C4.25342069 20.74657931 4.25342069 20.74657931 2 23 C1.93941406 21.84242188 1.87882813 20.68484375 1.81640625 19.4921875 C1.73194498 17.95311543 1.64729982 16.41405345 1.5625 14.875 C1.52318359 14.11445313 1.48386719 13.35390625 1.44335938 12.5703125 C1.20490998 8.31490797 0.79769763 4.19629174 0 0 Z " fill="#FEECC1" transform="translate(895,256)"/>
<path d="M0 0 C0 4.38968456 -2.12805101 5.76905739 -5 9 C-4.01 9.66 -3.02 10.32 -2 11 C-4.97 11 -7.94 11 -11 11 C-8.55226831 5.79857016 -4.59788619 3.17811135 0 0 Z " fill="#182548" transform="translate(758,351)"/>
<path d="M0 0 C2.35399191 2.29604749 4.53109618 4.70560126 6.6875 7.1875 C7.31011719 7.90292969 7.93273437 8.61835938 8.57421875 9.35546875 C9.27998047 10.16951172 9.27998047 10.16951172 10 11 C7 12 7 12 4.51953125 10.78515625 C3.62621094 10.21667969 2.73289062 9.64820313 1.8125 9.0625 C0.91144531 8.49660156 0.01039063 7.93070312 -0.91796875 7.34765625 C-1.60503906 6.90292969 -2.29210937 6.45820313 -3 6 C-2.34 5.67 -1.68 5.34 -1 5 C-0.01 5.33 0.98 5.66 2 6 C1.34 4.02 0.68 2.04 0 0 Z " fill="#FDE7B2" transform="translate(836,288)"/>
<path d="M0 0 C0.95224369 3.16676392 1.04686695 5.89222615 0.9375 9.1875 C0.87395397 14.44063874 1.66966993 18.92811662 3 24 C2.34 24 1.68 24 1 24 C1 22.68 1 21.36 1 20 C0.34 20 -0.32 20 -1 20 C-1.02888514 16.85418577 -1.04675923 13.70840531 -1.0625 10.5625 C-1.07087891 9.66466797 -1.07925781 8.76683594 -1.08789062 7.84179688 C-1.09111328 6.98779297 -1.09433594 6.13378906 -1.09765625 5.25390625 C-1.10551147 4.06776733 -1.10551147 4.06776733 -1.11352539 2.85766602 C-1 1 -1 1 0 0 Z " fill="#FEF2D1" transform="translate(1064,546)"/>
<path d="M0 0 C13.07420272 -0.57120303 13.07420272 -0.57120303 18 3 C20.375 5.6875 20.375 5.6875 22 8 C21.67 8.66 21.34 9.32 21 10 C17.125 7.375 17.125 7.375 16 4 C12.44736281 2.14480403 9.15251366 1.66162749 5.1875 1.375 C4.21167969 1.30023437 3.23585938 1.22546875 2.23046875 1.1484375 C1.12638672 1.07496094 1.12638672 1.07496094 0 1 C0 0.67 0 0.34 0 0 Z " fill="#FDF0CC" transform="translate(1094,538)"/>
<path d="M0 0 C0.66 0 1.32 0 2 0 C2.33 4.95 2.66 9.9 3 15 C2.01 15.33 1.02 15.66 0 16 C0 10.72 0 5.44 0 0 Z " fill="#38415F" transform="translate(852,378)"/>
<path d="M0 0 C0 3 0 3 -1.75 5.04296875 C-2.4925 5.75066406 -3.235 6.45835937 -4 7.1875 C-4.7425 7.90292969 -5.485 8.61835938 -6.25 9.35546875 C-6.8275 9.89816406 -7.405 10.44085938 -8 11 C-8.99 10.67 -9.98 10.34 -11 10 C-9.54474941 8.51780033 -8.085701 7.03932861 -6.625 5.5625 C-5.81289063 4.73878906 -5.00078125 3.91507812 -4.1640625 3.06640625 C-2 1 -2 1 0 0 Z " fill="#1B274A" transform="translate(872,348)"/>
<path d="M0 0 C2.69275174 2.21818757 3.89288827 3.37925803 4.49609375 6.875 C4.47675781 7.90625 4.45742188 8.9375 4.4375 10 C4.43621094 11.03125 4.43492187 12.0625 4.43359375 13.125 C3.95900532 16.27182056 3.11139895 17.67018047 1 20 C0.957279 18.33388095 0.95936168 16.66617115 1 15 C1.33 14.67 1.66 14.34 2 14 C2.23192865 12.48530552 2.41215238 10.96245438 2.5625 9.4375 C2.64628906 8.61121094 2.73007812 7.78492188 2.81640625 6.93359375 C2.87699219 6.29550781 2.93757812 5.65742187 3 5 C2.34 5 1.68 5 1 5 C0.67 3.35 0.34 1.7 0 0 Z " fill="#FEF0CC" transform="translate(980,523)"/>
<path d="M0 0 C2.38564077 0.57584432 4.66682784 1.22227595 7 2 C8.42446157 4.6352539 9.16845087 6.19404974 8.546875 9.16796875 C8.36640625 9.77253906 8.1859375 10.37710938 8 11 C7.0406581 9.72992786 6.08256706 8.45891081 5.125 7.1875 C4.59132813 6.47980469 4.05765625 5.77210938 3.5078125 5.04296875 C2.29185219 3.39543703 1.13583859 1.70375789 0 0 Z " fill="#FDF4D9" transform="translate(994,509)"/>
<path d="M0 0 C0.33 0 0.66 0 1 0 C1.08165496 2.20770805 1.13948488 4.41630425 1.1875 6.625 C1.22230469 7.85476563 1.25710938 9.08453125 1.29296875 10.3515625 C0.9787947 14.26407664 -0.03093467 16.64070218 -2 20 C-2.33 20 -2.66 20 -3 20 C-3 18.35 -3 16.7 -3 15 C-2.34 15 -1.68 15 -1 15 C-0.67 10.05 -0.34 5.1 0 0 Z " fill="#FEF1CB" transform="translate(1116,548)"/>
<path d="M0 0 C3.5786304 1.65167557 6.74820188 3.78286492 10 6 C7.18185434 7.40907283 5.82722796 6.50872691 2.875 5.5625 C1.96492187 5.27503906 1.05484375 4.98757813 0.1171875 4.69140625 C-0.58148437 4.46324219 -1.28015625 4.23507812 -2 4 C-1.34 3.67 -0.68 3.34 0 3 C0 2.01 0 1.02 0 0 Z " fill="#2F3A57" transform="translate(1005,420)"/>
<path d="M0 0 C0.99 0 1.98 0 3 0 C3.05447047 1.41623216 3.09300508 2.83308191 3.125 4.25 C3.14820313 5.03890625 3.17140625 5.8278125 3.1953125 6.640625 C3 9 3 9 1 13 C1 10.03 1 7.06 1 4 C0.34 4 -0.32 4 -1 4 C-0.67 2.68 -0.34 1.36 0 0 Z " fill="#FFF7DB" transform="translate(830,246)"/>
<path d="M0 0 C0.33 0 0.66 0 1 0 C1.23268915 6.28260706 0.40454548 11.88019467 -1 18 C-1.33 18 -1.66 18 -2 18 C-2.20852314 11.59370576 -2.1583195 6.07027358 0 0 Z " fill="#ECAB4F" transform="translate(1066,543)"/>
<path d="M0 0 C0 3 0 3 -2 6 C-2.99 6 -3.98 6 -5 6 C-5.33 7.32 -5.66 8.64 -6 10 C-6.66 10 -7.32 10 -8 10 C-6.5682479 4.98886765 -4.01554307 3.05530451 0 0 Z " fill="#E9A039" transform="translate(1077,529)"/>
<path d="M0 0 C0.33 0 0.66 0 1 0 C1 2.64 1 5.28 1 8 C0.34 8 -0.32 8 -1 8 C-1 9.65 -1 11.3 -1 13 C-1.66 13 -2.32 13 -3 13 C-2.52060632 8.28596212 -2.03165952 4.33420699 0 0 Z " fill="#EBA741" transform="translate(836,241)"/>
<path d="M0 0 C0.33 0 0.66 0 1 0 C1.29162929 4.95769796 1.12940055 8.02806853 -2 12 C-2.66 12 -3.32 12 -4 12 C-2.66666667 8 -1.33333333 4 0 0 Z " fill="#FDECC7" transform="translate(1136,563)"/>
<path d="M0 0 C0.33 0.66 0.66 1.32 1 2 C-1.31537955 5.72114571 -3.28579473 8.61229661 -7 11 C-7.66 10.67 -8.32 10.34 -9 10 C-8.27683594 9.29423828 -8.27683594 9.29423828 -7.5390625 8.57421875 C-6.90742187 7.95160156 -6.27578125 7.32898438 -5.625 6.6875 C-4.68527344 5.76517578 -4.68527344 5.76517578 -3.7265625 4.82421875 C-1.81913393 2.91187472 -1.81913393 2.91187472 0 0 Z " fill="#FEF0CC" transform="translate(890,294)"/>
<path d="M0 0 C0.99 0.33 1.98 0.66 3 1 C2.71125 1.515625 2.4225 2.03125 2.125 2.5625 C0.71219973 5.62356725 -0.1248517 8.74944918 -1 12 C-1.66 11.67 -2.32 11.34 -3 11 C-2.01 7.37 -1.02 3.74 0 0 Z " fill="#273254" transform="translate(624,537)"/>
<path d="M0 0 C0.66 0 1.32 0 2 0 C2 0.99 2 1.98 2 3 C2.66 3 3.32 3 4 3 C4 3.66 4 4.32 4 5 C4.66 5 5.32 5 6 5 C6 6.65 6 8.3 6 10 C3.38275905 7.63202009 1.67138271 5.10399646 0 2 C0 1.34 0 0.68 0 0 Z " fill="#E9A135" transform="translate(835,284)"/>
<path d="M0 0 C0.99 0.33 1.98 0.66 3 1 C3.33 2.65 3.66 4.3 4 6 C4.66 6 5.32 6 6 6 C5.67 7.32 5.34 8.64 5 10 C4.16121545 8.71186658 3.32913217 7.41936744 2.5 6.125 C2.0359375 5.40570313 1.571875 4.68640625 1.09375 3.9453125 C0 2 0 2 0 0 Z " fill="#FEF2CF" transform="translate(867,206)"/>
<path d="M0 0 C0.66 0.33 1.32 0.66 2 1 C0.02 3.31 -1.96 5.62 -4 8 C-4.33 7.01 -4.66 6.02 -5 5 C-3.35 3.35 -1.7 1.7 0 0 Z " fill="#202C4C" transform="translate(782,527)"/>
<path d="M0 0 C0.33 0.99 0.66 1.98 1 3 C-0.65 4.65 -2.3 6.3 -4 8 C-4.25 5.6875 -4.25 5.6875 -4 3 C-2 1.1875 -2 1.1875 0 0 Z " fill="#222F4E" transform="translate(397,397)"/>
</svg>
